<svg width="82" height="103" viewBox="0 0 82 103" fill="none" xmlns="http://www.w3.org/2000/svg">
<path opacity="0.2" d="M76.358 63.108C79.162 48.0305 66.5733 33.1633 48.5485 30.9206C33.4725 29.0403 19.4456 37.0906 15.8957 49.6661C12.6333 61.2134 18.6852 72.9702 29.5523 79.3662C30.2899 79.7997 30.8368 80.4388 31.1366 81.156L37.568 96.5661C37.8783 97.3128 39.0026 97.5219 39.5606 96.9367L51.1007 84.8755C51.6473 84.3089 52.3952 83.9105 53.2483 83.766C64.9266 81.8313 74.3406 73.9567 76.358 63.108Z" fill="#0E64E0"/>
<path d="M78 38.8772C78 16.486 59.0099 -1.4941 36.2 0.0982007C17.1206 1.42347 1.62297 16.7234 0.124793 35.7222C-1.25432 53.1683 8.93524 68.4287 23.8475 74.7089C24.8595 75.1342 25.683 75.9056 26.2188 76.855L37.718 97.2582C38.2736 98.2472 39.7123 98.2472 40.2679 97.2582L51.7671 76.8649C52.3128 75.9056 53.1462 75.1342 54.1681 74.699C68.1676 68.8045 78 54.9881 78 38.8772Z" fill="#66A6FD"/>
<path d="M54 38C54 46.2843 47.2843 53 39 53C30.7157 53 24 46.2843 24 38C24 29.7157 30.7157 23 39 23C47.2843 23 54 29.7157 54 38Z" fill="white"/>
</svg>
