<svg width="82" height="103" viewBox="0 0 82 103" fill="none" xmlns="http://www.w3.org/2000/svg">
<path opacity="0.2" d="M76.358 63.108C79.162 48.0305 66.5733 33.1633 48.5485 30.9206C33.4725 29.0403 19.4456 37.0906 15.8957 49.6661C12.6333 61.2134 18.6852 72.9702 29.5523 79.3662C30.2899 79.7997 30.8368 80.4388 31.1366 81.156L37.568 96.5661C37.8783 97.3128 39.0026 97.5219 39.5606 96.9367L51.1007 84.8755C51.6473 84.3089 52.3952 83.9105 53.2483 83.766C64.9266 81.8313 74.3406 73.9567 76.358 63.108Z" fill="black"/>
<path d="M39.4619 96.2783L39.46 96.2764L39.4551 96.2686L39.4619 96.2783ZM36.3389 2.09375C57.9899 0.582349 75.9999 17.6431 76 38.877C76 53.9134 66.9679 66.851 54.0117 72.5879L53.3916 72.8555L53.3848 72.8594C52.027 73.4376 50.9237 74.4253 50.1738 75.6318L50.0283 75.876L50.0254 75.8828L38.9922 95.4463L27.9609 75.873V75.8721L27.8174 75.6299C27.0795 74.4335 25.9849 73.4377 24.623 72.8652H24.624C10.691 66.9974 1.11378 52.8776 2.06543 36.6543L2.11816 35.8799C3.51583 18.1557 17.7856 3.8051 35.4932 2.16211L36.3389 2.09375Z" fill="#080808" stroke="white" stroke-width="4"/>
<path d="M54 38C54 46.2843 47.2843 53 39 53C30.7157 53 24 46.2843 24 38C24 29.7157 30.7157 23 39 23C47.2843 23 54 29.7157 54 38Z" fill="white"/>
</svg>
