<svg width="32" height="32" viewBox="0 0 32 32" fill="none" xmlns="http://www.w3.org/2000/svg">
    <g clip-path="url(#clip0_82_109)">
        <path d="M22.8571 0H9.14286C4.0934 0 0 4.0934 0 9.14286V22.8571C0 27.9066 4.0934 32 9.14286 32H22.8571C27.9066 32 32 27.9066 32 22.8571V9.14286C32 4.0934 27.9066 0 22.8571 0Z" fill="#0D5D45"/>
        <path d="M22.4893 10.7603C20.3005 8.74963 5.58994 11.5555 6.98452 12.581C8.34375 13.5805 16.9291 15.0923 17.4123 15.1768C17.4231 15.6701 17.6263 24.4371 18.4055 25.9386C19.205 27.4792 24.307 12.8862 22.511 10.7856C22.5074 10.7814 22.504 10.777 22.5004 10.7728C22.8281 11.5853 22.493 10.7645 22.4893 10.7603Z" fill="white"/>
    </g>
    <defs>
        <clipPath id="clip0_82_109">
            <rect width="32" height="32" fill="white"/>
        </clipPath>
    </defs>
</svg>

