<svg width="98" height="40" viewBox="0 0 98 40" fill="none" xmlns="http://www.w3.org/2000/svg">
<path fill-rule="evenodd" clip-rule="evenodd" d="M80.3523 2.79413C78.8051 1.66102 95.1255 -1.43933 97.5539 0.782308C97.5552 0.78384 97.5961 0.882514 97.6376 0.9827C97.7227 1.18784 97.8104 1.39931 97.5661 0.796137C97.5683 0.798659 97.5704 0.801259 97.5725 0.803857C97.5743 0.806034 97.5761 0.80821 97.5779 0.810338C99.5705 3.13132 93.9101 19.2557 93.0231 17.5534C92.1586 15.8943 91.9332 6.20741 91.9212 5.66232C91.3851 5.56897 81.8603 3.89853 80.3523 2.79413ZM70.4689 27.0232C69.2456 27.2176 68.229 27.0289 67.419 26.4572C66.8727 26.0596 66.4668 25.5235 66.2014 24.8489C66.1295 24.9699 66.0547 25.0879 65.9771 25.203C65.028 26.6104 63.8353 27.5828 62.3989 28.12C63.8104 29.894 64.6162 31.4141 64.8165 32.6801C65.02 33.9662 64.7927 35.0633 64.1346 35.9713C63.4997 36.8962 62.5606 37.4574 61.3172 37.655C60.0739 37.8525 58.9955 37.6633 58.082 37.0874C57.1918 36.5284 56.6497 35.636 56.4557 34.4102C56.4176 34.169 56.3814 33.6804 56.3471 32.9442L55.9919 24.6572C55.4215 24.1007 54.8925 23.5898 54.4048 23.1244C54.3381 25.1506 53.7633 26.8309 52.6802 28.165C51.3523 29.7768 49.4449 30.7803 46.9582 31.1754C46.3967 31.2646 45.7739 31.2914 45.0898 31.2559L45.366 37.936C45.4075 38.9407 44.69 39.8173 43.6968 39.9751C42.526 40.1611 41.4549 39.2832 41.4056 38.0988C41.2926 35.3871 41.1886 32.9044 41.0935 30.6505C41.0153 30.7523 40.9343 30.849 40.8506 30.9406C39.9888 31.8604 39.0765 32.3967 38.1139 32.5497C36.2689 32.8428 34.9439 32.3941 34.1387 31.2035C33.3026 32.6754 32.0623 33.542 30.4178 33.8033C28.7934 34.0614 27.3323 33.727 26.0344 32.8002C25.7531 32.5955 25.4959 32.3695 25.2627 32.1223C24.4596 33.896 23.1611 34.9253 21.3672 35.2104C20.1239 35.4079 19.141 35.1726 18.4185 34.5046C17.696 33.8365 17.268 33.0805 17.1345 32.2365L16.8024 25.46C16.7166 24.9175 16.5046 24.4876 16.1666 24.1705C15.8286 23.8534 15.3488 23.7442 14.7271 23.843C14.1255 23.9386 13.6306 24.2541 13.2425 24.7896C12.8544 25.3251 12.6273 25.9689 12.5613 26.721C12.7042 30.3287 12.8008 32.9868 12.851 34.6953C12.8799 35.6765 12.1724 36.5167 11.2029 36.6707C10.0346 36.8564 8.96519 35.9827 8.91411 34.8008L8.56962 26.8299C8.48059 26.2672 8.26707 25.8273 7.92908 25.5102C7.60796 25.1698 7.10648 25.0537 6.42463 25.1621C5.74278 25.2704 5.23373 25.6912 4.89746 26.4245C4.55801 27.1376 4.38536 27.8655 4.3795 28.608C4.43713 31.8894 4.49051 34.3152 4.53965 35.8855C4.57211 36.9227 3.83091 37.842 2.80613 38.0048C1.6249 38.1925 0.544449 37.3075 0.495822 36.1124L0 23.927C0.807305 23.5721 1.43156 23.3597 1.87275 23.2896C3.13617 23.0888 3.89482 23.4009 4.14869 24.2258C4.99781 23.2257 6.00394 22.6332 7.16709 22.4484C9.49339 22.0788 11.0871 22.5363 11.9482 23.821C12.7083 22.2581 14.0008 21.3318 15.8258 21.0418C17.1694 20.8283 18.288 21.0111 19.1814 21.5902C20.0716 22.1492 20.5994 22.9512 20.7647 23.9962C20.8124 24.2976 20.8365 24.8397 20.837 25.6225C20.8527 28.7101 20.9019 30.5152 20.9846 31.0377C21.134 31.9822 21.5196 32.405 22.1412 32.3063C22.6627 32.2234 23.1601 31.7942 23.6336 31.0185C23.7924 30.7597 23.9324 30.4639 24.0537 30.1312C23.8916 29.6872 23.7698 29.2075 23.6883 28.6922C23.2718 26.0597 23.7116 23.837 25.0078 22.0242C26.3039 20.2114 28.1352 19.117 30.5016 18.741L30.6821 18.7124C31.6848 18.553 32.6344 18.5773 33.5307 18.7851C34.0181 18.3574 34.6428 18.0831 35.4049 17.962C36.187 17.8377 36.7644 17.849 37.1372 17.9958C37.192 19.5116 37.2336 21.0088 37.262 22.4876C37.2872 23.9462 37.3074 24.9834 37.3225 25.599C37.3583 26.9942 37.4238 27.9932 37.5192 28.5961C37.6464 29.3999 38.0309 29.7508 38.6726 29.6489C39.174 29.5692 39.6529 29.1532 40.1095 28.4008C40.4441 27.8309 40.7075 27.0591 40.8999 26.0856C40.7373 22.2797 40.6099 19.3732 40.5176 17.366C40.9133 17.1383 41.4721 16.9671 42.1941 16.8524C43.4976 16.6453 44.3121 16.8558 44.6377 17.484C45.4753 16.671 46.6161 16.1499 48.06 15.9205C49.5039 15.6911 50.8411 16.0864 52.0715 17.1063C52.9256 17.8143 53.5438 18.6591 53.926 19.6406C53.9385 19.6379 53.951 19.6356 53.9635 19.6336C54.1841 19.5985 54.4021 19.6772 54.6176 19.8696C54.8531 20.0588 55.2492 20.4181 55.8058 20.9477L55.3464 10.6379C55.297 9.28607 55.4477 8.15998 55.7987 7.25958C56.2719 6.09255 57.3708 5.37203 59.0955 5.09801C60.3188 4.90365 61.3054 5.09712 62.0552 5.67842C62.8019 6.23962 63.269 7.11304 63.4566 8.29869C63.7078 9.88625 63.4344 11.5366 62.6364 13.2496C61.8585 14.9595 60.8799 16.5055 59.7006 17.8877L60.098 25.2718C60.4994 25.5995 61.0109 25.7139 61.6326 25.6151C62.8759 25.4176 63.826 24.731 64.4829 23.5554C65.002 22.6317 65.4151 21.4619 65.7221 20.0461C65.6147 17.6142 65.4646 13.9936 65.2719 9.18453C65.1775 6.76863 65.6926 5.15202 66.8174 4.33469C67.3312 3.94404 67.9792 3.68658 68.7613 3.56232C71.4085 3.14174 72.926 4.15729 73.3139 6.60897C73.3457 6.80993 73.3691 7.02253 73.384 7.24676C73.6095 9.97145 72.359 12.9822 69.6324 16.2789C69.6879 17.2795 69.7286 18.2516 69.7546 19.1951C69.8414 21.3032 69.9023 22.4678 69.9373 22.6888C70.1027 23.7338 70.6366 24.1846 71.539 24.0412C72.5217 23.8851 73.3451 23.1774 74.0093 21.9183C74.1787 21.5994 74.3325 21.2633 74.471 20.9099C74.4473 20.5412 74.4279 20.1247 74.4126 19.6602C74.3749 18.5125 74.333 17.2728 74.2867 15.9411C74.2405 14.6094 74.1916 13.1957 74.1399 11.7001C74.7266 11.3802 75.2807 11.1789 75.8021 11.0961C76.3235 11.0132 76.7178 10.9712 76.9848 10.97C77.2519 10.9687 77.5264 11.0796 77.8084 11.3026C78.0904 11.5256 78.2696 11.8783 78.3459 12.3606L78.5694 20.2049C78.5802 20.5328 78.5951 20.7571 78.6142 20.8776C78.8018 22.0633 79.437 22.5701 80.52 22.398C81.5026 22.2419 82.2317 21.6523 82.7071 20.6291C82.6941 20.1573 82.6347 18.8071 82.5287 16.5784C82.4196 14.3297 82.3483 12.5796 82.3148 11.3283C82.4349 10.9178 82.7582 10.5574 83.2847 10.2472C83.8313 9.9337 84.2851 9.74829 84.6461 9.69094C85.2878 9.58898 85.8821 9.57697 86.429 9.65489L86.7751 21.0025C89.1402 21.0507 90.7817 22.3915 91.6994 25.0248C91.7045 25.0392 91.7093 25.0525 91.7138 25.0649L91.7141 25.0658C91.7424 25.1438 91.7583 25.1879 91.7449 25.2837C91.6361 26.059 90.4854 26.0122 90.0776 25.344C89.2844 24.0444 88.2131 23.3032 86.8635 23.1206L86.9784 26.9651C87.044 28.8087 86.7077 30.3866 85.9696 31.6987C85.2347 33.0309 83.9749 33.8388 82.19 34.1224C81.0469 34.304 80.0086 34.1085 79.0751 33.5358C78.1448 32.9831 77.5747 32.0437 77.3648 30.7174C77.1073 29.0896 77.6783 27.3714 79.0779 25.5628C77.8989 25.6471 76.9059 25.4134 76.0991 24.8618C75.7319 24.6107 75.4285 24.2919 75.1889 23.9053C74.7879 24.5477 74.2816 25.1188 73.6697 25.6186C72.7792 26.3575 71.7123 26.8257 70.4689 27.0232ZM69.4863 13.212C71.0102 10.8892 71.6449 8.92393 71.3905 7.31627C71.2379 6.35168 70.8006 5.92673 70.0787 6.04143C69.6238 6.15491 69.3606 6.50573 69.2892 7.0939C69.2379 7.67888 69.2422 8.61554 69.3021 9.90388C69.3821 11.189 69.4259 11.9855 69.4335 12.2933L69.4863 13.212ZM60.2878 7.5661C60.3881 7.55017 60.4899 7.54428 60.5934 7.54845C61.1033 7.65284 61.4234 8.117 61.5538 8.94093C61.681 9.74475 61.5533 10.6921 61.1709 11.7829C60.8052 12.8504 60.2612 13.8948 59.5388 14.916L59.4779 13.7514C59.338 11.178 59.3026 9.52521 59.3718 8.79318C59.441 8.06115 59.7463 7.65213 60.2878 7.5661ZM60.5721 33.7253C60.5212 33.4037 60.4979 33.1911 60.502 33.0875L60.2855 28.7957C61.8415 30.4438 62.7037 31.8003 62.8722 32.8654C62.9613 33.4281 62.8961 33.8608 62.6767 34.1634C62.4605 34.4862 62.182 34.6747 61.8411 34.7288C61.5202 34.7798 61.242 34.7107 61.0065 34.5215C60.771 34.3323 60.6262 34.0669 60.5721 33.7253ZM50.0858 21.9025C49.9459 21.0183 49.6213 20.2664 49.1122 19.6469C48.603 19.0274 47.9272 18.7845 47.0849 18.9183C45.9418 19.0999 45.1871 19.9821 44.8208 21.5647C44.8903 24.6026 44.9331 26.3675 44.9493 26.8594C45.0246 27.4654 45.2867 27.8873 45.7354 28.125C46.1842 28.3627 46.6994 28.4354 47.281 28.343C48.3037 28.1805 49.0729 27.5845 49.5884 26.5549C50.2094 25.282 50.3751 23.7312 50.0858 21.9025ZM28.4903 22.9851C29.0965 21.8793 30.0414 21.2245 31.3249 21.0205C31.8663 20.9345 32.4469 20.9659 33.0667 21.1146L33.3749 27.7403C33.0162 29.6308 32.2051 30.6764 30.9417 30.8772C30.1996 30.995 29.5419 30.8008 28.9684 30.2945C28.4149 29.785 28.0603 29.0379 27.9045 28.0533C27.879 27.8925 27.862 27.7201 27.8535 27.536C27.6886 25.5845 27.9009 24.0676 28.4903 22.9851ZM80.3356 31.1724C79.9638 30.9018 79.7255 30.435 79.6206 29.7718C79.4041 28.014 80.5013 26.2431 82.9122 24.4592L83.0458 27.8371C83.0952 29.1889 83.0145 30.1081 82.8037 30.5949C82.5929 31.0816 82.2168 31.3679 81.6753 31.454C81.1539 31.5368 80.7073 31.443 80.3356 31.1724Z" fill="#242B0E"/>
</svg>
